<?xml version="1.0" encoding="UTF-8" standalone="no"?>
<!-- Created with Inkscape (http://www.inkscape.org/) -->

<svg
   xmlns:dc="http://purl.org/dc/elements/1.1/"
   xmlns:cc="http://creativecommons.org/ns#"
   xmlns:rdf="http://www.w3.org/1999/02/22-rdf-syntax-ns#"
   xmlns:svg="http://www.w3.org/2000/svg"
   xmlns="http://www.w3.org/2000/svg"
   xmlns:xlink="http://www.w3.org/1999/xlink"
   xmlns:sodipodi="http://sodipodi.sourceforge.net/DTD/sodipodi-0.dtd"
   xmlns:inkscape="http://www.inkscape.org/namespaces/inkscape"
   inkscape:export-ydpi="70.187363"
   inkscape:export-xdpi="70.187363"
   inkscape:export-filename="C:\Users\Ross\Desktop\RhinoFacts.png"
   sodipodi:docname="favicon.svg"
   inkscape:version="0.92.2 (5c3e80d, 2017-08-06)"
   version="1.1"
   id="svg2"
   viewBox="0 0 1016.8178 1018.5645"
   height="287.46155mm"
   width="286.96857mm">
  <sodipodi:namedview
     inkscape:window-maximized="1"
     inkscape:window-y="-8"
     inkscape:window-x="-8"
     inkscape:window-height="1017"
     inkscape:window-width="1920"
     showguides="true"
     showgrid="false"
     inkscape:current-layer="layer1"
     inkscape:document-units="px"
     inkscape:cy="-120.91402"
     inkscape:cx="466.77079"
     inkscape:zoom="0.32"
     inkscape:pageshadow="2"
     inkscape:pageopacity="0.0"
     borderopacity="1.0"
     bordercolor="#666666"
     pagecolor="#ffffff"
     id="base"
     inkscape:object-nodes="true"
     inkscape:snap-bbox="false"
     inkscape:snap-bbox-edge-midpoints="true"
     inkscape:bbox-paths="true"
     inkscape:snap-smooth-nodes="true"
     inkscape:snap-nodes="true"
     inkscape:snap-others="false"
     inkscape:snap-global="false"
     fit-margin-top="0"
     fit-margin-left="0"
     fit-margin-right="0"
     fit-margin-bottom="0" />
  <defs
     id="defs4">
    <inkscape:path-effect
       effect="envelope"
       id="path-effect4959"
       is_visible="true"
       yy="true"
       xx="true"
       bendpath1="m 3699.6918,1593.5815 c 209.8833,-115.0251 416.9844,-156.5367 616.59,0"
       bendpath2="m 4316.2818,1593.5815 v 101.4859"
       bendpath3="m 3699.6918,1695.0674 c 205.53,21.7007 411.06,22.0487 616.59,0"
       bendpath4="m 3699.6918,1593.5815 v 101.4859"
       bendpath3-nodetypes="cc"
       bendpath1-nodetypes="cc" />
    <inkscape:path-effect
       effect="bend_path"
       id="path-effect4957"
       is_visible="true"
       bendpath="m 3706.9464,1616.603 c 201.299,65.6715 406.2436,79.8705 617.8508,0"
       prop_scale="1"
       scale_y_rel="false"
       vertical="false"
       bendpath-nodetypes="cc" />
    <inkscape:path-effect
       effect="envelope"
       id="path-effect4954"
       is_visible="true"
       yy="true"
       xx="true"
       bendpath1="m 3693.9535,1459.406 c 224.9592,-20.0918 447.253,-29.5221 659.8088,0"
       bendpath2="m 4353.7623,1459.406 v 125.5365"
       bendpath3="m 3693.9535,1584.9425 c 224.8772,97.622 451.1095,120.7706 659.8088,0"
       bendpath4="m 3693.9535,1459.406 v 125.5365"
       bendpath3-nodetypes="cc"
       bendpath1-nodetypes="cc" />
    <inkscape:path-effect
       effect="bend_path"
       id="path-effect4952"
       is_visible="true"
       bendpath="m 3704.2852,1568.1348 c 235.8674,-119.9706 448.081,-109.0828 638.1328,0"
       prop_scale="1"
       scale_y_rel="false"
       vertical="false"
       bendpath-nodetypes="cc" />
    <inkscape:path-effect
       effect="envelope"
       id="path-effect4948"
       is_visible="true"
       yy="true"
       xx="true"
       bendpath1="M 3704.2852,1545.3457 H 4342.418"
       bendpath2="m 4342.418,1545.3457 v 45.5781"
       bendpath3="M 3704.2852,1590.9238 H 4342.418"
       bendpath4="m 3704.2852,1545.3457 v 45.5781" />
    <inkscape:perspective
       id="perspective4286"
       inkscape:persp3d-origin="-313.8903 : 292.97487 : 1"
       inkscape:vp_z="-61.843022 : 394.08285 : 1"
       inkscape:vp_y="0 : 999.99991 : 0"
       inkscape:vp_x="-737.36614 : 402.65427 : 1"
       sodipodi:type="inkscape:persp3d" />
    <inkscape:path-effect
       effect="envelope"
       id="path-effect4180"
       is_visible="true"
       yy="true"
       xx="true"
       bendpath1="m 272.22522,66.544943 c 15.01882,1.996961 30.13989,4.914205 46.09716,15.357143"
       bendpath2="M 317.60809,71.009229 V 195.66858"
       bendpath3="m 273.11807,198.34715 c 16.27098,1.86559 30.76435,-0.89062 44.66859,-5.17857"
       bendpath4="M 274.01093,71.009229 V 195.66858"
       bendpath1-nodetypes="cc"
       bendpath3-nodetypes="cc" />
    <inkscape:path-effect
       effect="envelope"
       id="path-effect4174"
       is_visible="true"
       yy="true"
       xx="true"
       bendpath1="m 200.02849,70.957096 c 45.80176,0.692958 46.19879,-7.750475 72.84179,-7.98618"
       bendpath2="m 270.33164,76.113272 1.53153,83.951338"
       bendpath3="m 208.24339,161.28052 63.61978,-1.21591"
       bendpath4="m 206.71187,77.329181 1.53152,83.951339"
       bendpath1-nodetypes="cc" />
    <inkscape:path-effect
       effect="envelope"
       id="path-effect4171"
       is_visible="true"
       yy="true"
       xx="true"
       bendpath1="m 210.83072,81.723515 h 39.77593"
       bendpath2="M 250.60665,81.723515 V 194.21292"
       bendpath3="m 210.83072,194.21292 h 39.77593"
       bendpath4="M 210.83072,81.723515 V 194.21292" />
    <inkscape:path-effect
       effect="envelope"
       id="path-effect4169"
       is_visible="true"
       yy="true"
       xx="true"
       bendpath1="m 172.54082,72.725145 c 16.22103,0.027 9.08617,-5.060575 35.27582,4.073876"
       bendpath2="M 207.81664,81.723515 V 194.21292"
       bendpath3="m 141.12891,214.54224 c 23.30163,-6.9662 34.40067,-12.86141 78.93583,-0.12627"
       bendpath4="M 167.64542,81.723515 V 194.21292"
       bendpath1-nodetypes="cc"
       bendpath3-nodetypes="cc" />
    <linearGradient
       inkscape:collect="always"
       id="linearGradient4542">
      <stop
         style="stop-color:#e98f26;stop-opacity:1"
         offset="0"
         id="stop4544" />
      <stop
         style="stop-color:#e15c29;stop-opacity:0.24562745"
         offset="1"
         id="stop4546" />
    </linearGradient>
    <linearGradient
       inkscape:collect="always"
       xlink:href="#linearGradient4542"
       id="linearGradient1301"
       gradientUnits="userSpaceOnUse"
       gradientTransform="translate(1565.9956,3756.073)"
       x1="3628.0002"
       y1="976.95282"
       x2="4302.9082"
       y2="1905.3887" />
  </defs>
  <metadata
     id="metadata7">
    <rdf:RDF>
      <cc:Work
         rdf:about="">
        <dc:format>image/svg+xml</dc:format>
        <dc:type
           rdf:resource="http://purl.org/dc/dcmitype/StillImage" />
        <dc:title></dc:title>
      </cc:Work>
    </rdf:RDF>
  </metadata>
  <g
     inkscape:label="Layer 1"
     inkscape:groupmode="layer"
     id="layer1"
     transform="translate(-27.493483,-3761.0348)">
    <text
       xml:space="preserve"
       style="font-style:normal;font-weight:normal;font-size:40px;line-height:125%;font-family:sans-serif;letter-spacing:0px;word-spacing:0px;fill:#000000;fill-opacity:1;stroke:none;stroke-width:1px;stroke-linecap:butt;stroke-linejoin:miter;stroke-opacity:1"
       x="3756.25"
       y="1561.7372"
       id="text4791"><tspan
         sodipodi:role="line"
         id="tspan4793"
         x="3756.25"
         y="1598.2303" /></text>
    <path
       inkscape:export-filename="C:\Users\Ross\Desktop\SSV\Shield Icon.png"
       style="opacity:1;fill:#411f79;fill-opacity:1;fill-rule:evenodd;stroke:none;stroke-width:1.0643512px;stroke-linecap:butt;stroke-linejoin:miter;stroke-opacity:1"
       d="M 1044.3112,4193.5953 927.16434,4274.24 923.22148,4164.0476 Z"
       id="path1218"
       inkscape:connector-curvature="0"
       inkscape:export-xdpi="51.764557"
       inkscape:export-ydpi="51.764557" />
    <path
       inkscape:export-filename="C:\Users\Ross\Desktop\SSV\Shield Icon.png"
       style="opacity:1;fill:#411f79;fill-opacity:1;fill-rule:evenodd;stroke:none;stroke-width:1.0643512px;stroke-linecap:butt;stroke-linejoin:miter;stroke-opacity:1"
       d="m 27.493483,4071.4412 122.726077,-84.4855 0.89324,138.4913 z"
       id="path1220"
       inkscape:connector-curvature="0"
       inkscape:export-xdpi="51.764557"
       inkscape:export-ydpi="51.764557" />
    <path
       inkscape:export-filename="C:\Users\Ross\Desktop\SSV\Shield Icon.png"
       inkscape:connector-curvature="0"
       id="path1222"
       d="m 535.90229,3761.0348 c -135.4824,-10e-5 -389.52685,39.909 -389.52685,39.909 l -21.9696,3.4068 v 75.556 h 26.13791 c 9.217,-3e-4 16.33784,6.651 16.33794,16.3848 2.9e-4,9.7341 -7.12085,16.3868 -16.33794,16.3866 h -26.13791 v 470.666 c 0,105.0842 43.36022,205.8892 120.52417,280.1951 77.16386,74.3058 181.84594,116.0605 290.97228,116.0602 109.12594,-2e-4 213.8088,-41.7561 290.97227,-116.0619 77.16357,-74.3059 120.52281,-175.1096 120.52242,-280.1934 v -470.666 h -26.13791 c -9.2167,-10e-5 -16.33638,-6.6527 -16.33619,-16.3866 2e-4,-9.7338 7.11929,-16.3847 16.33619,-16.3848 h 26.13791 v -75.556 l -21.9697,-3.4068 h -0.0127 c -0.039,-0.011 -254.04094,-39.9073 -389.51242,-39.9073 z"
       style="color:#000000;font-style:normal;font-variant:normal;font-weight:normal;font-stretch:normal;font-size:medium;line-height:normal;font-family:sans-serif;text-indent:0;text-align:start;text-decoration:none;text-decoration-line:none;text-decoration-style:solid;text-decoration-color:#000000;letter-spacing:normal;word-spacing:normal;text-transform:none;writing-mode:lr-tb;direction:ltr;baseline-shift:baseline;text-anchor:start;white-space:normal;clip-rule:nonzero;display:inline;overflow:visible;visibility:visible;opacity:1;isolation:auto;mix-blend-mode:normal;color-interpolation:sRGB;color-interpolation-filters:linearRGB;solid-color:#000000;solid-opacity:1;fill:#3a3343;fill-opacity:1;fill-rule:nonzero;stroke:none;stroke-width:26.44254112;stroke-linecap:butt;stroke-linejoin:miter;stroke-miterlimit:4;stroke-dasharray:none;stroke-dashoffset:0;stroke-opacity:1;color-rendering:auto;image-rendering:auto;shape-rendering:auto;text-rendering:auto;enable-background:accumulate"
       inkscape:export-xdpi="51.764557"
       inkscape:export-ydpi="51.764557" />
    <path
       inkscape:export-filename="C:\Users\Ross\Desktop\SSV\Shield Icon.png"
       inkscape:connector-curvature="0"
       id="path1225"
       d="m 535.90229,3773.6197 c -132.77374,-1e-4 -387.43645,39.747 -387.43645,39.747 l -10.99109,1.7041 v 52.2508 h 13.069 c 16.28219,-4e-4 29.40656,12.7136 29.40695,28.9698 2.9e-4,16.2568 -13.12418,28.9719 -29.40695,28.9715 h -13.069 v 458.0811 c 0,101.7509 41.98011,199.3474 116.69633,271.2963 74.71613,71.9488 176.06651,112.3745 281.73121,112.374 105.66431,-1e-4 207.01546,-40.4269 281.7313,-112.3757 74.71584,-71.9488 116.69478,-169.544 116.69448,-271.2946 v -458.0811 h -13.069 c -16.28219,-1e-4 -29.40549,-12.7152 -29.40519,-28.9715 3.9e-4,-16.2557 13.12339,-28.9696 29.40519,-28.9698 h 13.069 v -52.2508 l -10.99118,-1.7041 c 0,0 -254.66136,-39.747 -387.4346,-39.747 z"
       style="color:#000000;font-style:normal;font-variant:normal;font-weight:normal;font-stretch:normal;font-size:medium;line-height:normal;font-family:sans-serif;text-indent:0;text-align:start;text-decoration:none;text-decoration-line:none;text-decoration-style:solid;text-decoration-color:#000000;letter-spacing:normal;word-spacing:normal;text-transform:none;writing-mode:lr-tb;direction:ltr;baseline-shift:baseline;text-anchor:start;white-space:normal;clip-rule:nonzero;display:inline;overflow:visible;visibility:visible;opacity:1;isolation:auto;mix-blend-mode:normal;color-interpolation:sRGB;color-interpolation-filters:linearRGB;solid-color:#000000;solid-opacity:1;fill:#f2f2f2;fill-opacity:1;fill-rule:nonzero;stroke:none;stroke-width:26.44254112;stroke-linecap:butt;stroke-linejoin:miter;stroke-miterlimit:4;stroke-dasharray:none;stroke-dashoffset:0;stroke-opacity:1;color-rendering:auto;image-rendering:auto;shape-rendering:auto;text-rendering:auto;enable-background:accumulate"
       inkscape:export-xdpi="51.764557"
       inkscape:export-ydpi="51.764557" />
    <path
       inkscape:export-filename="C:\Users\Ross\Desktop\SSV\Shield Icon.png"
       inkscape:export-ydpi="51.764557"
       inkscape:export-xdpi="51.764557"
       style="opacity:0.4;fill:url(#linearGradient1301);fill-opacity:1;stroke:none;stroke-width:11.87594986;stroke-miterlimit:4;stroke-dasharray:none;stroke-dashoffset:0;stroke-opacity:1"
       d="m 535.90229,3786.2046 c -130.01907,0 -385.35854,39.5865 -385.35854,39.5865 v 28.9457 c 23.45821,-7e-4 42.47537,18.6039 42.47586,41.5546 3.9e-4,22.9514 -19.01697,41.5571 -42.47586,41.5564 v 445.4962 c 0,98.418 40.59951,192.8054 112.86831,262.3975 72.26879,69.5922 170.28668,108.6883 272.49023,108.688 102.20335,-2e-4 200.22183,-39.0977 272.49023,-108.6897 72.2685,-69.5921 112.86694,-163.9781 112.86655,-262.3958 v -445.4962 c -23.45821,-3e-4 -42.47449,-18.6058 -42.4741,-41.5564 5.8e-4,-22.9499 19.01658,-41.5544 42.4741,-41.5546 v -28.9457 c 0,0 -255.33821,-39.5864 -385.35678,-39.5865 z"
       id="path1227"
       inkscape:connector-curvature="0"
       sodipodi:nodetypes="sccscssssscsccs" />
    <path
       inkscape:export-filename="C:\Users\Ross\Desktop\SSV\Shield Icon.png"
       sodipodi:nodetypes="sccscssssscsccs"
       inkscape:connector-curvature="0"
       id="path1229"
       d="m 535.90229,3786.2046 c -130.01907,0 -385.35854,39.5865 -385.35854,39.5865 v 28.9457 c 23.45821,-7e-4 42.47537,18.6039 42.47586,41.5546 3.9e-4,22.9514 -19.01697,41.5571 -42.47586,41.5564 v 445.4962 c 0,98.418 40.59951,192.8054 112.86831,262.3975 72.26879,69.5922 170.28668,108.6883 272.49023,108.688 102.20335,-2e-4 200.22183,-39.0977 272.49023,-108.6897 72.2685,-69.5921 112.86694,-163.9781 112.86655,-262.3958 v -445.4962 c -23.45821,-3e-4 -42.47449,-18.6058 -42.4741,-41.5564 5.8e-4,-22.9499 19.01658,-41.5544 42.4741,-41.5546 v -28.9457 c 0,0 -255.33821,-39.5864 -385.35678,-39.5865 z"
       style="opacity:1;fill:#c5ade7;fill-opacity:1;stroke:none;stroke-width:11.87594986;stroke-miterlimit:4;stroke-dasharray:none;stroke-dashoffset:0;stroke-opacity:1"
       inkscape:export-xdpi="51.764557"
       inkscape:export-ydpi="51.764557" />
    <path
       inkscape:export-ydpi="51.764557"
       inkscape:export-xdpi="51.764557"
       inkscape:export-filename="C:\Users\Ross\Desktop\SSV\Shield Icon.png"
       id="path1231"
       d="m 535.90239,3786.2049 v 968.2248 c 102.20335,-10e-5 200.22222,-39.0974 272.49062,-108.6896 72.2685,-69.592 112.86664,-163.9781 112.86625,-262.3959 V 3937.848 c -23.4582,-2e-4 -42.47517,-18.6057 -42.47478,-41.5563 5.9e-4,-22.95 19.01726,-41.5544 42.47478,-41.5547 v -28.9456 c 0,0 -255.3383,-39.5865 -385.35687,-39.5865 z"
       style="opacity:1;fill:#8e5fd2;fill-opacity:1;stroke:none;stroke-width:11.87594986;stroke-miterlimit:4;stroke-dasharray:none;stroke-dashoffset:0;stroke-opacity:1"
       inkscape:connector-curvature="0" />
    <rect
       inkscape:export-ydpi="51.764557"
       inkscape:export-xdpi="51.764557"
       inkscape:export-filename="C:\Users\Ross\Desktop\SSV\Shield Icon.png"
       transform="matrix(0.88824116,-0.45937744,0.53303066,0.84609592,0,0)"
       style="opacity:1;fill:#e6e6e6;fill-opacity:1;stroke:none;stroke-width:10.43464375;stroke-linecap:round;stroke-linejoin:miter;stroke-miterlimit:4;stroke-dasharray:none;stroke-dashoffset:0;stroke-opacity:1;paint-order:stroke fill markers"
       id="rect1233"
       width="240.79605"
       height="229.04128"
       x="-1702.3018"
       y="3685.4854"
       ry="50.731758"
       rx="51.059658" />
    <g
       inkscape:export-ydpi="51.764557"
       inkscape:export-xdpi="51.764557"
       inkscape:export-filename="C:\Users\Ross\Desktop\SSV\Shield Icon.png"
       style="fill:#c5ade7;fill-opacity:1;stroke:none"
       transform="matrix(0.93860156,-0.48542265,0.53575589,0.85042174,-2432.956,3367.7454)"
       id="g1247">
      <circle
         style="opacity:1;fill:#c5ade7;fill-opacity:1;stroke:none;stroke-width:6.78917265;stroke-linecap:round;stroke-linejoin:miter;stroke-miterlimit:4;stroke-dasharray:none;stroke-dashoffset:0;stroke-opacity:1;paint-order:stroke fill markers"
         id="circle1235"
         cx="2128.053"
         cy="1848.8932"
         r="19.79443" />
      <circle
         r="19.79443"
         cy="1906.8981"
         cx="2128.053"
         id="circle1237"
         style="opacity:1;fill:#c5ade7;fill-opacity:1;stroke:none;stroke-width:6.78917265;stroke-linecap:round;stroke-linejoin:miter;stroke-miterlimit:4;stroke-dasharray:none;stroke-dashoffset:0;stroke-opacity:1;paint-order:stroke fill markers" />
      <circle
         style="opacity:1;fill:#c5ade7;fill-opacity:1;stroke:none;stroke-width:6.78917265;stroke-linecap:round;stroke-linejoin:miter;stroke-miterlimit:4;stroke-dasharray:none;stroke-dashoffset:0;stroke-opacity:1;paint-order:stroke fill markers"
         id="circle1239"
         cx="2128.053"
         cy="1970.5999"
         r="19.79443" />
      <circle
         r="19.79443"
         cy="1848.8932"
         cx="2197.9695"
         id="circle1241"
         style="opacity:1;fill:#c5ade7;fill-opacity:1;stroke:none;stroke-width:6.78917265;stroke-linecap:round;stroke-linejoin:miter;stroke-miterlimit:4;stroke-dasharray:none;stroke-dashoffset:0;stroke-opacity:1;paint-order:stroke fill markers" />
      <circle
         style="opacity:1;fill:#c5ade7;fill-opacity:1;stroke:none;stroke-width:6.78917265;stroke-linecap:round;stroke-linejoin:miter;stroke-miterlimit:4;stroke-dasharray:none;stroke-dashoffset:0;stroke-opacity:1;paint-order:stroke fill markers"
         id="circle1243"
         cx="2197.9695"
         cy="1906.8981"
         r="19.79443" />
      <circle
         r="19.79443"
         cy="1970.5999"
         cx="2197.9695"
         id="circle1245"
         style="opacity:1;fill:#c5ade7;fill-opacity:1;stroke:none;stroke-width:6.78917265;stroke-linecap:round;stroke-linejoin:miter;stroke-miterlimit:4;stroke-dasharray:none;stroke-dashoffset:0;stroke-opacity:1;paint-order:stroke fill markers" />
    </g>
    <rect
       inkscape:export-ydpi="51.764557"
       inkscape:export-xdpi="51.764557"
       inkscape:export-filename="C:\Users\Ross\Desktop\SSV\Shield Icon.png"
       transform="matrix(0.97069613,0.24031026,-0.28872338,0.95741256,0,0)"
       rx="51.560234"
       ry="51.353508"
       y="3658.9675"
       x="1435.213"
       height="229.96284"
       width="250.33434"
       id="rect1249"
       style="opacity:1;fill:#f2f2f2;fill-opacity:1;stroke:none;stroke-width:10.66068459;stroke-linecap:round;stroke-linejoin:miter;stroke-miterlimit:4;stroke-dasharray:none;stroke-dashoffset:0;stroke-opacity:1;paint-order:stroke fill markers" />
    <g
       inkscape:export-ydpi="51.764557"
       inkscape:export-xdpi="51.764557"
       inkscape:export-filename="C:\Users\Ross\Desktop\SSV\Shield Icon.png"
       style="fill:#8e5fd2;fill-opacity:1;stroke:none"
       transform="matrix(0.96005963,-0.49652025,0.54800419,0.86986386,-2518.6443,3243.0926)"
       id="g1257">
      <circle
         r="19.79443"
         cy="1966.1394"
         cx="1872.3878"
         id="circle1251"
         style="opacity:1;fill:#8e5fd2;fill-opacity:1;stroke:none;stroke-width:6.78917265;stroke-linecap:round;stroke-linejoin:miter;stroke-miterlimit:4;stroke-dasharray:none;stroke-dashoffset:0;stroke-opacity:1;paint-order:stroke fill markers" />
      <circle
         style="opacity:1;fill:#8e5fd2;fill-opacity:1;stroke:none;stroke-width:6.78917265;stroke-linecap:round;stroke-linejoin:miter;stroke-miterlimit:4;stroke-dasharray:none;stroke-dashoffset:0;stroke-opacity:1;paint-order:stroke fill markers"
         id="circle1253"
         cx="1943.8582"
         cy="1966.1394"
         r="19.79443" />
      <circle
         style="opacity:1;fill:#8e5fd2;fill-opacity:1;stroke:none;stroke-width:6.78917265;stroke-linecap:round;stroke-linejoin:miter;stroke-miterlimit:4;stroke-dasharray:none;stroke-dashoffset:0;stroke-opacity:1;paint-order:stroke fill markers"
         id="circle1255"
         cx="2015.3284"
         cy="1966.1394"
         r="19.79443" />
    </g>
    <path
       inkscape:export-filename="C:\Users\Ross\Desktop\SSV\Shield Icon.png"
       style="color:#000000;font-style:normal;font-variant:normal;font-weight:normal;font-stretch:normal;font-size:medium;line-height:normal;font-family:sans-serif;text-indent:0;text-align:start;text-decoration:none;text-decoration-line:none;text-decoration-style:solid;text-decoration-color:#000000;letter-spacing:normal;word-spacing:normal;text-transform:none;writing-mode:lr-tb;direction:ltr;baseline-shift:baseline;text-anchor:start;white-space:normal;clip-rule:nonzero;display:inline;overflow:visible;visibility:visible;opacity:1;isolation:auto;mix-blend-mode:normal;color-interpolation:sRGB;color-interpolation-filters:linearRGB;solid-color:#000000;solid-opacity:1;fill:#3e3747;fill-opacity:1;fill-rule:nonzero;stroke:none;stroke-width:36.40081024;stroke-linecap:butt;stroke-linejoin:miter;stroke-miterlimit:4;stroke-dasharray:none;stroke-dashoffset:0;stroke-opacity:1;color-rendering:auto;image-rendering:auto;shape-rendering:auto;text-rendering:auto;enable-background:accumulate"
       d="m 27.493483,4071.4412 v 17.5905 237.9989 L 1044.3112,4193.5953 v -255.5895 z"
       id="path1259"
       inkscape:connector-curvature="0"
       inkscape:export-xdpi="51.764557"
       inkscape:export-ydpi="51.764557" />
    <rect
       inkscape:export-filename="C:\Users\Ross\Desktop\SSV\Shield Icon.png"
       style="opacity:1;fill:#f2f2f2;fill-opacity:1;stroke:none;stroke-width:29.83936501;stroke-miterlimit:4;stroke-dasharray:none;stroke-dashoffset:0;stroke-opacity:1"
       id="rect1261"
       width="996.45691"
       height="220.4111"
       x="42.268349"
       y="4092.6389"
       transform="matrix(0.9914992,-0.13011279,0,1,0,0)"
       inkscape:export-xdpi="51.764557"
       inkscape:export-ydpi="51.764557" />
    <path
       inkscape:export-ydpi="51.764557"
       inkscape:export-xdpi="51.764557"
       inkscape:export-filename="C:\Users\Ross\Desktop\SSV\Shield Icon.png"
       style="opacity:1;fill:#f2f2f2;fill-opacity:1;stroke:none;stroke-width:4.63904238;stroke-linecap:round;stroke-linejoin:round;stroke-miterlimit:4;stroke-dasharray:none;stroke-dashoffset:0;stroke-opacity:1"
       d="m 838.57038,3890.5938 c -5.93929,8.9178 -5.97428,9.1403 -1.80393,11.4343 6.00353,3.3026 5.12286,5.5945 -2.53428,6.5944 -7.3695,0.9625 -10.71368,6.3357 -8.98033,14.4295 0.92794,4.3323 2.03922,5.0103 6.83145,4.1676 4.98884,-0.8771 5.59492,-0.42 4.72342,3.5619 -1.30477,5.9615 -6.872,6.492 -13.25742,1.2632 -3.98146,-3.2603 -5.20337,-6.7553 -5.56334,-15.9118 l -0.46133,-11.7339 -11.78062,-3.594 c -12.60114,-3.8445 -19.71936,-11.7198 -19.16786,-21.2068 0.39233,-6.7558 12.53496,-15.9522 20.54203,-15.5582 7.0649,0.3462 13.58317,6.0123 13.25322,11.5181 -0.26307,4.4557 -6.62422,6.3028 -9.83067,2.8566 -1.917,-2.0604 -1.83512,-2.8529 0.35782,-3.4614 4.01966,-1.1154 3.82287,-5.8156 -0.31357,-7.4922 -5.68986,-2.3062 -16.90484,5.4609 -17.29541,11.9782 -0.48668,8.122 8.76745,16.7875 18.43603,17.2631 9.9879,0.4915 15.63185,-2.051 20.20701,-9.1016 10.15224,-15.646 1.06216,-32.9937 -20.84633,-39.7839 -7.94556,-2.4626 -11.29793,-2.5621 -18.98451,-0.5635 -8.05015,2.0931 -9.38338,3.2365 -9.6873,8.3064 -0.4282,7.1503 -4.90774,8.812 -7.93455,2.9433 -1.71278,-3.3209 -4.39854,-4.3939 -11.924,-4.7643 -10.4854,-0.5156 -20.70753,-6.6977 -17.65294,-10.676 2.45611,-3.1989 7.48725,-2.5596 8.79709,1.1181 1.91777,5.384 12.17966,4.3249 15.05832,-1.5541 2.44665,-4.9966 2.71831,-5.0575 6.62549,-1.4861 3.63884,3.3263 5.2873,3.5052 15.42531,1.6752 21.1635,-3.8203 42.70208,5.1299 50.45533,20.9664 5.16263,10.5449 4.63375,15.8082 -2.69413,26.8115 z"
       id="path1263"
       inkscape:connector-curvature="0" />
    <path
       inkscape:export-ydpi="51.764557"
       inkscape:export-xdpi="51.764557"
       inkscape:export-filename="C:\Users\Ross\Desktop\SSV\Shield Icon.png"
       inkscape:connector-curvature="0"
       id="path1265"
       d="m 237.8194,3890.5938 c 5.93929,8.9178 5.97428,9.1403 1.80392,11.4343 -6.00352,3.3026 -5.12286,5.5945 2.53429,6.5944 7.3695,0.9625 10.71368,6.3357 8.98033,14.4295 -0.92794,4.3323 -2.03922,5.0103 -6.83146,4.1676 -4.98883,-0.8771 -5.59491,-0.42 -4.72341,3.5619 1.30476,5.9615 6.872,6.492 13.25742,1.2632 3.98145,-3.2603 5.20337,-6.7553 5.56333,-15.9118 l 0.46134,-11.7339 11.78062,-3.594 c 12.60114,-3.8445 19.71935,-11.7198 19.16785,-21.2068 -0.39232,-6.7558 -12.53495,-15.9522 -20.54202,-15.5582 -7.0649,0.3462 -13.58317,6.0123 -13.25323,11.5181 0.26308,4.4557 6.62423,6.3028 9.83068,2.8566 1.91699,-2.0604 1.83511,-2.8529 -0.35782,-3.4614 -4.01967,-1.1154 -3.82287,-5.8156 0.31357,-7.4922 5.68985,-2.3062 16.90484,5.4609 17.29541,11.9782 0.48668,8.122 -8.76745,16.7875 -18.43603,17.2631 -9.98791,0.4915 -15.63185,-2.051 -20.20701,-9.1016 -10.15225,-15.646 -1.06216,-32.9937 20.84633,-39.7839 7.94556,-2.4626 11.29793,-2.5621 18.98451,-0.5635 8.05015,2.0931 9.38338,3.2365 9.6873,8.3064 0.42819,7.1503 4.90773,8.812 7.93455,2.9433 1.71278,-3.3209 4.39854,-4.3939 11.92399,-4.7643 10.48541,-0.5156 20.70753,-6.6977 17.65294,-10.676 -2.45611,-3.1989 -7.48724,-2.5596 -8.79708,1.1181 -1.91777,5.384 -12.17967,4.3249 -15.05832,-1.5541 -2.44666,-4.9966 -2.71831,-5.0575 -6.62549,-1.4861 -3.63884,3.3263 -5.2873,3.5052 -15.42531,1.6752 -21.16351,-3.8203 -42.70209,5.1299 -50.45534,20.9664 -5.16262,10.5449 -4.63374,15.8082 2.69414,26.8115 z"
       style="opacity:1;fill:#f2f2f2;fill-opacity:1;stroke:none;stroke-width:4.63904238;stroke-linecap:round;stroke-linejoin:round;stroke-miterlimit:4;stroke-dasharray:none;stroke-dashoffset:0;stroke-opacity:1" />
    <path
       inkscape:export-ydpi="51.764557"
       inkscape:export-xdpi="51.764557"
       inkscape:export-filename="C:\Users\Ross\Desktop\SSV\Shield Icon.png"
       style="opacity:1;fill:#f2f2f2;fill-opacity:1;stroke:none;stroke-width:4.63904238;stroke-linecap:round;stroke-linejoin:round;stroke-miterlimit:4;stroke-dasharray:none;stroke-dashoffset:0;stroke-opacity:1"
       d="m 448.96711,4690.8817 c -0.97316,0.041 -1.78755,0.2918 -2.35883,0.7865 -2.44997,2.1219 -0.037,4.8061 4.2188,4.6934 6.23132,-0.1648 8.71209,5.8561 3.63991,8.8351 -4.31101,2.532 -4.28021,2.6985 0.77101,4.0725 4.70441,1.2796 5.46314,2.1672 7.10301,8.2968 3.42343,12.7957 20.17387,22.8509 39.23831,23.5551 12.69452,0.469 17.94926,-1.0459 26.7669,-7.7137 3.91138,-2.9578 5.74503,-4.3091 7.23236,-4.6366 1.63325,0.038 3.38863,1.3254 7.88153,4.7228 8.81764,6.6679 14.07229,8.1811 26.7669,7.7122 19.06444,-0.7044 35.81303,-10.7596 39.23646,-23.5554 1.63987,-6.1295 2.40035,-7.0154 7.10476,-8.295 5.05122,-1.374 5.08202,-1.5405 0.77101,-4.0726 -5.07217,-2.979 -2.59131,-9.0013 3.64001,-8.8366 4.25623,0.1126 6.66867,-2.5715 4.2187,-4.6935 -3.04689,-2.6388 -12.99648,1.6876 -17.18136,7.4706 -3.00352,4.1505 -5.04703,5.4128 -9.07527,5.6094 -7.11841,0.3473 -6.96139,3.2536 0.27799,5.1471 5.13407,1.3428 5.84971,2.3571 5.20863,7.3722 -0.61173,4.7886 -1.88229,6.653 -7.19424,10.5565 -14.64699,10.7629 -35.73759,11.8712 -48.36885,2.5407 -1.32874,-0.9817 -2.37296,-1.9399 -3.1583,-2.9012 -0.0702,-0.2385 -0.14757,-0.4867 -0.24173,-0.7486 -1.57223,-4.3707 2.8151,-7.4951 11.78227,-8.39 4.75949,-0.4749 5.86853,-0.011 6.66507,2.8168 -2.74492,1.5278 -2.36848,4.5076 1.42212,5.4972 5.57416,1.4582 13.70053,-0.9002 16.51895,-4.797 3.19583,-4.4159 -2.0785,-13.3779 -8.92292,-15.1601 -9.61088,-2.503 -20.22728,-0.3159 -28.58876,5.8889 l -7.2038,5.3454 -1.44688,0.2897 -0.71204,-0.1431 -7.51405,-5.5766 c -8.36148,-6.2047 -18.97788,-8.3918 -28.58876,-5.8889 -6.84442,1.7822 -12.11875,10.7425 -8.92292,15.1585 2.81842,3.8968 10.94469,6.2569 16.51885,4.7988 3.76887,-0.9839 4.16295,-3.9357 1.46979,-5.4716 0.7943,-2.6887 1.94642,-3.1397 6.6174,-2.6735 8.96717,0.8949 13.3546,4.0193 11.78237,8.3899 -0.0595,0.1661 -0.1043,0.3177 -0.1542,0.4744 -0.79362,0.9964 -1.86904,1.9876 -3.24593,3.0047 -12.63126,9.3307 -33.72176,8.2239 -48.36875,-2.5391 -5.31195,-3.9034 -6.5826,-5.7677 -7.19434,-10.5563 -0.64108,-5.0151 0.0751,-6.0294 5.20873,-7.3722 7.23938,-1.8935 7.39631,-4.7998 0.2779,-5.1472 -4.02825,-0.1966 -6.07361,-1.4607 -9.07713,-5.6111 -3.40022,-4.6987 -10.60412,-8.4349 -14.82068,-8.2553 z m 57.04418,18.9497 c 7.0574,-0.1945 15.05823,2.3668 18.6226,6.2511 l -0.39408,-0.08 c -9.5872,-1.9136 -13.62528,-2.0326 -18.38087,-0.5451 -7.33051,2.2932 -8.88081,5.3873 -3.9255,7.5 -1.38684,1.3035 -4.81846,1.5232 -7.23811,0.043 -4.36501,-2.6697 -0.24368,-10.7777 6.35471,-12.5037 1.54192,-0.4034 3.22225,-0.618 4.96125,-0.6659 z m 59.78375,0.084 c 1.7389,0.048 3.41933,0.2643 4.96115,0.6675 6.59839,1.7261 10.71787,9.8341 6.35286,12.5039 -2.49227,1.5245 -6.05352,1.2437 -7.35234,-0.1656 5.09439,-2.1135 3.57753,-5.2374 -3.80942,-7.5483 -4.75558,-1.4875 -8.79357,-1.3684 -18.38077,0.5452 l -0.21317,0.043 c 3.65327,-3.7702 11.50779,-6.2369 18.44169,-6.0458 z"
       id="path1267"
       inkscape:connector-curvature="0" />
    <text
       inkscape:export-ydpi="51.764557"
       inkscape:export-xdpi="51.764557"
       inkscape:export-filename="C:\Users\Ross\Desktop\SSV\Shield Icon.png"
       transform="matrix(0.78628141,-0.10280058,0,1.2718093,0,0)"
       id="text1271"
       y="3363.8179"
       x="77.136986"
       style="font-style:normal;font-variant:normal;font-weight:normal;font-stretch:normal;font-size:179.44006348px;line-height:125%;font-family:'Britannic Bold';-inkscape-font-specification:'Britannic Bold, ';letter-spacing:0px;word-spacing:0px;fill:#452375;fill-opacity:1;stroke:none;stroke-width:4.48600149px;stroke-linecap:butt;stroke-linejoin:miter;stroke-opacity:1"
       xml:space="preserve"><tspan
         style="font-style:normal;font-variant:normal;font-weight:normal;font-stretch:normal;font-family:'Britannic Bold';-inkscape-font-specification:'Britannic Bold, ';fill:#452375;fill-opacity:1;stroke-width:4.48600149px"
         y="3363.8179"
         x="77.136986"
         id="tspan1269"
         sodipodi:role="line">SIX SIDED VICE</tspan></text>
    <path
       inkscape:export-ydpi="51.764557"
       inkscape:export-xdpi="51.764557"
       inkscape:export-filename="C:\Users\Ross\Desktop\SSV\Shield Icon.png"
       inkscape:connector-curvature="0"
       id="path1273"
       d="m 261.76097,4156.7666 v 17.4556 l 39.1228,-5.4172 v -17.1546 z"
       style="fill:#c5ade7;fill-opacity:1;fill-rule:evenodd;stroke:none;stroke-width:0.99782926px;stroke-linecap:butt;stroke-linejoin:miter;stroke-opacity:1" />
    <g
       transform="matrix(0.82861215,0,0,0.75076562,-1775.7562,3121.9084)"
       id="g1291"
       inkscape:export-xdpi="51.764557"
       inkscape:export-ydpi="51.764557">
      <g
         id="g1281"
         transform="matrix(1.62272,0.64724664,-0.64724664,1.62272,1020.6819,-2773.376)"
         style="fill:#f2f2f2;fill-opacity:1">
        <path
           inkscape:connector-curvature="0"
           id="path1275"
           d="m 1788.5742,2070.5841 v 138.6823 c 0,10.5498 5.3899,19.0429 12.085,19.0429 6.695,0 12.085,-8.4931 12.085,-19.0429 v -138.6109 c -0.3869,0.1757 -0.7332,0.4208 -1.128,0.5805 -1.7257,0.6979 -3.5225,1.2412 -5.3595,1.6095 -1.837,0.3683 -3.7136,0.5621 -5.5975,0.5621 -1.8839,0 -3.7433,-0.1916 -5.5536,-0.5567 -1.8103,-0.3649 -3.5706,-0.9039 -5.2552,-1.5966 -0.4476,-0.1841 -0.8397,-0.4645 -1.2762,-0.6702 z"
           style="opacity:1;fill:#f2f2f2;fill-opacity:1;stroke:none;stroke-width:8.41505432;stroke-linecap:round;stroke-linejoin:miter;stroke-miterlimit:4;stroke-dasharray:none;stroke-dashoffset:0;stroke-opacity:1;paint-order:stroke fill markers" />
        <path
           inkscape:connector-curvature="0"
           id="path1277"
           d="m 1787.4756,2069.0457 c 0.4762,0.2244 0.9039,0.5303 1.3922,0.7311 1.8378,0.7557 3.758,1.3437 5.7329,1.7418 1.9749,0.3983 4.0034,0.6073 6.0585,0.6073 2.0551,0 4.1023,-0.2114 6.1063,-0.6132 2.0041,-0.4018 3.9642,-0.9945 5.8468,-1.7558 0.4306,-0.1742 0.8084,-0.4416 1.2305,-0.6333 v -28.1449 a 33.15873,33.15873 0 0 1 -13.1836,2.7765 33.15873,33.15873 0 0 1 -13.1836,-2.7486 z"
           style="opacity:1;fill:#f2f2f2;fill-opacity:1;stroke:none;stroke-width:9.18005753;stroke-linecap:round;stroke-linejoin:miter;stroke-miterlimit:4;stroke-dasharray:none;stroke-dashoffset:0;stroke-opacity:1;paint-order:stroke fill markers" />
        <path
           sodipodi:nodetypes="ssscs"
           inkscape:connector-curvature="0"
           id="path1279"
           d="m 1827.9473,2015.1309 c 2.389,14.8802 -12.2173,27.2881 -27.2881,27.2881 -15.0708,0 -28.6237,-12.2766 -27.2881,-27.2881 1.2948,-14.5529 28.5518,-37.3904 28.065,-54.7368 10.6827,13.5985 22.8859,32.1564 26.5112,54.7368 z"
           style="opacity:1;fill:#f2f2f2;fill-opacity:1;stroke:none;stroke-width:7.39668179;stroke-linecap:round;stroke-linejoin:miter;stroke-miterlimit:4;stroke-dasharray:none;stroke-dashoffset:0;stroke-opacity:1;paint-order:stroke fill markers" />
      </g>
      <g
         style="fill:#f2f2f2;fill-opacity:1"
         transform="matrix(1.6051089,-0.68976387,0.68976387,1.6051089,-1783.1868,-330.25915)"
         id="g1289">
        <path
           style="opacity:1;fill:#f2f2f2;fill-opacity:1;stroke:none;stroke-width:8.41505432;stroke-linecap:round;stroke-linejoin:miter;stroke-miterlimit:4;stroke-dasharray:none;stroke-dashoffset:0;stroke-opacity:1;paint-order:stroke fill markers"
           d="m 1788.5742,2070.5841 v 138.6823 c 0,10.5498 5.3899,19.0429 12.085,19.0429 6.695,0 12.085,-8.4931 12.085,-19.0429 v -138.6109 c -0.3869,0.1757 -0.7332,0.4208 -1.128,0.5805 -1.7257,0.6979 -3.5225,1.2412 -5.3595,1.6095 -1.837,0.3683 -3.7136,0.5621 -5.5975,0.5621 -1.8839,0 -3.7433,-0.1916 -5.5536,-0.5567 -1.8103,-0.3649 -3.5706,-0.9039 -5.2552,-1.5966 -0.4476,-0.1841 -0.8397,-0.4645 -1.2762,-0.6702 z"
           id="path1283"
           inkscape:connector-curvature="0" />
        <path
           style="opacity:1;fill:#f2f2f2;fill-opacity:1;stroke:none;stroke-width:9.18005753;stroke-linecap:round;stroke-linejoin:miter;stroke-miterlimit:4;stroke-dasharray:none;stroke-dashoffset:0;stroke-opacity:1;paint-order:stroke fill markers"
           d="m 1787.4756,2069.0457 c 0.4762,0.2244 0.9039,0.5303 1.3922,0.7311 1.8378,0.7557 3.758,1.3437 5.7329,1.7418 1.9749,0.3983 4.0034,0.6073 6.0585,0.6073 2.0551,0 4.1023,-0.2114 6.1063,-0.6132 2.0041,-0.4018 3.9642,-0.9945 5.8468,-1.7558 0.4306,-0.1742 0.8084,-0.4416 1.2305,-0.6333 v -28.1449 a 33.15873,33.15873 0 0 1 -13.1836,2.7765 33.15873,33.15873 0 0 1 -13.1836,-2.7486 z"
           id="path1285"
           inkscape:connector-curvature="0" />
        <path
           style="opacity:1;fill:#f2f2f2;fill-opacity:1;stroke:none;stroke-width:7.39668179;stroke-linecap:round;stroke-linejoin:miter;stroke-miterlimit:4;stroke-dasharray:none;stroke-dashoffset:0;stroke-opacity:1;paint-order:stroke fill markers"
           d="m 1827.9473,2015.1309 c 2.389,14.8802 -12.2173,27.2881 -27.2881,27.2881 -15.0708,0 -28.6237,-12.2766 -27.2881,-27.2881 1.2948,-14.5529 28.5518,-37.3904 28.065,-54.7368 10.6827,13.5985 22.8859,32.1564 26.5112,54.7368 z"
           id="path1287"
           inkscape:connector-curvature="0"
           sodipodi:nodetypes="ssscs" />
      </g>
    </g>
    <g
       transform="matrix(0.73212634,0,0,0.66334448,-1427.7214,3248.9525)"
       style="fill:#f2f2f2;fill-opacity:1"
       id="g1299"
       inkscape:export-xdpi="51.764557"
       inkscape:export-ydpi="51.764557">
      <path
         style="opacity:1;fill:#f2f2f2;fill-opacity:1;stroke:none;stroke-width:6.07032204;stroke-linecap:round;stroke-linejoin:miter;stroke-miterlimit:4;stroke-dasharray:none;stroke-dashoffset:0;stroke-opacity:1;paint-order:stroke fill markers"
         d="m 2813.0423,1726.0085 222.576,0.5457 c 3.2683,0.01 5.3177,2.6834 5.8995,5.8995 l 7.7405,50.2856 -0.2196,183.6557 c -0.01,3.2683 -4.1723,9.5234 -8.5342,11.3884 -66.6557,28.499 -160.2785,29.7156 -231.4012,2.6347 -5.622,-2.1407 -9.8708,-11.8527 -9.8516,-15.121 l 1.0978,-187.0932 6.7933,-46.2959 c 0.4745,-3.2336 2.6312,-5.9075 5.8995,-5.8995 z"
         id="path1293"
         inkscape:connector-curvature="0"
         sodipodi:nodetypes="ssscsssscss" />
      <path
         style="opacity:1;fill:#f2f2f2;fill-opacity:1;stroke:none;stroke-width:6.07032204;stroke-linecap:round;stroke-linejoin:miter;stroke-miterlimit:4;stroke-dasharray:none;stroke-dashoffset:0;stroke-opacity:1;paint-order:stroke fill markers"
         d="m 2820.4525,1681.4809 c 77.561,5.7002 136.3599,5.2204 210.2202,0 3.2602,-0.2304 5.3063,2.6855 5.8995,5.8995 l 5.2785,28.5996 c 0.5932,3.2141 -2.6312,5.8995 -5.8995,5.8995 h -221.3983 c -3.2683,0 -6.5597,-2.6985 -5.8995,-5.8995 l 5.8995,-28.5996 c 0.6603,-3.2009 2.64,-6.139 5.8996,-5.8995 z"
         id="path1295"
         inkscape:connector-curvature="0"
         sodipodi:nodetypes="sssssssss" />
      <path
         style="opacity:1;fill:#f2f2f2;fill-opacity:1;stroke:none;stroke-width:6.07032204;stroke-linecap:round;stroke-linejoin:miter;stroke-miterlimit:4;stroke-dasharray:none;stroke-dashoffset:0;stroke-opacity:1;paint-order:stroke fill markers"
         d="m 2860.055,1605.4403 0.388,-6.7114 c 43.7809,-20.4411 87.2381,-19.5167 130.4337,-1.3257 l 0.1988,6.9393 c 30.2877,12.147 46.614,35.0144 44.1311,72.3246 -74.5477,8.1572 -148.0263,7.0486 -220.8195,0 -0.4285,-32.9906 7.7338,-60.9049 45.6679,-71.2268 z"
         id="path1297"
         inkscape:connector-curvature="0"
         sodipodi:nodetypes="ccccccc" />
    </g>
  </g>
</svg>
